<?xml version="1.0" encoding="UTF-8" standalone="no"?>
<svg
   xmlns:dc="http://purl.org/dc/elements/1.1/"
   xmlns:cc="http://creativecommons.org/ns#"
   xmlns:rdf="http://www.w3.org/1999/02/22-rdf-syntax-ns#"
   xmlns:svg="http://www.w3.org/2000/svg"
   xmlns="http://www.w3.org/2000/svg"
   id="svg18"
   preserveAspectRatio="xMidYMid meet"
   viewBox="0 0 468 617"
   height="617pt"
   width="468pt"
   version="1.0">
  <defs
     id="defs22" />
  <metadata
     id="metadata2">
Created by potrace 1.5, written by Peter Selinger 2001-2004
<rdf:RDF>
  <cc:Work
     rdf:about="">
    <dc:format>image/svg+xml</dc:format>
    <dc:type
       rdf:resource="http://purl.org/dc/dcmitype/StillImage" />
    <dc:title></dc:title>
  </cc:Work>
</rdf:RDF>
</metadata>
  <path
     d="m 214.14548,22.781742 c -9.92727,9.927274 -11.34545,89.345468 -2.12727,104.236378 3.54545,5.67273 11.34545,7.8 17.72727,5.67273 8.5091,-3.54546 11.34546,-14.89091 11.34546,-50.345464 0,-63.109099 -7.09091,-79.418192 -26.94546,-59.563644 z"
     id="path4"
     style="fill:#000099;stroke:none;stroke-width:0.70909101" />
  <path
     d="M 369.43641,67.454475 C 350.29095,107.87266 346.7455,144.0363 362.3455,147.58176 375.10914,149.70903 421.90915,61.072656 415.52733,45.472654 407.72732,24.199924 384.32732,34.836289 369.43641,67.454475 Z"
     id="path6"
     style="fill:#000099;stroke:none;stroke-width:0.70909101" />
  <path
     d="M 24.109094,51.854473 C 18.436366,67.454475 65.945463,163.89085 78.00001,161.05449 104.94547,156.09085 70.200009,42.63629 41.836369,42.63629 c -7.800001,0 -15.600002,4.254546 -17.727275,9.218183 z"
     id="path8"
     style="fill:#000099;stroke:none;stroke-width:0.70909101" />
  <path
     d="M 180.10911,198.63631 C 144.65456,203.59995 89.345466,235.50904 56.018189,269.54541 -13.472729,340.45451 9.927274,514.8909 96.436376,569.4909 141.10911,597.85454 172.30911,604.94545 238.25458,600.69091 326.89095,595.72727 388.58187,556.72726 433.2546,478.72726 470.83642,413.49088 455.94551,322.72723 397.09096,253.94541 353.12732,203.59995 276.54549,183.7454 180.10911,198.63631 Z"
     id="path10"
     style="fill:#000099;stroke:none;stroke-width:0.70909101" />
  <path
     d="m 314.12731,234.79995 c 33.32728,9.21818 79.41819,49.63637 97.85456,85.09092 17.01819,34.03637 18.43637,104.23638 2.12727,134.72729 -15.6,30.49091 -58.14546,76.58183 -82.96364,88.63638 C 234.00003,593.6 134.72729,582.25454 82.254556,514.1818 54.600007,477.30907 46.090915,448.94543 46.090915,390.09088 46.800006,335.49087 59.563644,309.9636 104.23638,275.92723 160.96366,231.2545 244.6364,214.9454 314.12731,234.79995 Z"
     id="path12"
     style="fill:#ffff63;stroke:none;stroke-width:0.70909101" />
  <g
     transform="rotate(2.55339,186.68328,509.31614)"
     id="g974">
    <path
       style="fill:#000099;stroke:none;stroke-width:0.66341305"
       id="path14"
       d="m 106.18874,316.54695 c 4.50672,3.41803 18.02686,10.25409 30.90319,14.35573 43.13569,14.35573 77.25796,68.36063 63.094,98.4393 -9.65725,20.50819 -36.05372,44.43441 -65.66927,60.15735 -25.75265,14.35573 -30.90318,34.86392 -9.01343,38.96556 16.73923,3.41803 71.46361,-36.23113 90.7781,-65.6262 39.91662,-60.84096 4.50672,-139.45568 -76.61413,-172.26878 -25.75267,-10.2541 -52.149138,10.2541 -33.47846,25.97704 z" />
    <path
       style="color:#000000;font-style:normal;font-variant:normal;font-weight:normal;font-stretch:normal;font-size:medium;line-height:normal;font-family:sans-serif;font-variant-ligatures:normal;font-variant-position:normal;font-variant-caps:normal;font-variant-numeric:normal;font-variant-alternates:normal;font-feature-settings:normal;text-indent:0;text-align:start;text-decoration:none;text-decoration-line:none;text-decoration-style:solid;text-decoration-color:#000000;letter-spacing:normal;word-spacing:normal;text-transform:none;writing-mode:lr-tb;direction:ltr;text-orientation:mixed;dominant-baseline:auto;baseline-shift:baseline;text-anchor:start;white-space:normal;shape-padding:0;clip-rule:nonzero;display:inline;overflow:visible;visibility:visible;opacity:1;isolation:auto;mix-blend-mode:normal;color-interpolation:sRGB;color-interpolation-filters:linearRGB;solid-color:#000000;solid-opacity:1;vector-effect:none;fill:#000099;fill-opacity:1;fill-rule:nonzero;stroke:none;stroke-width:31.5;stroke-linecap:round;stroke-linejoin:miter;stroke-miterlimit:4;stroke-dasharray:none;stroke-dashoffset:0;stroke-opacity:1;color-rendering:auto;image-rendering:auto;shape-rendering:auto;text-rendering:auto;enable-background:accumulate"
       d="m 313.03516,274.41797 c -4.51425,-0.19353 -9.04623,0.17421 -13.56641,1.19726 -13.32306,3.01541 -25.72702,9.26964 -34.03125,20.16016 -8.30423,10.89052 -11.97952,24.64429 -13.45703,41.26758 0.17563,53.31948 1.57992,97.89446 2.22499,115.7012 0.64507,17.80673 0.76932,37.41149 1.63243,56.57614 0.86311,19.16465 14.53412,28.71688 23.2862,27.82777 8.75208,-0.88912 15.07957,-13.13504 12.46437,-30.71553 -6.69185,-35.66702 -9.06097,-62.54696 -10.59237,-97.84075 -1.34218,-33.33899 -1.33879,-60.88275 -0.63867,-68.75977 1.19369,-13.43 7.02728,-20.88942 10.12891,-24.95703 3.10163,-4.06761 7.00231,-6.51525 15.93555,-8.53711 4.17556,-0.94505 21.94603,-1.61063 33.35742,5.78125 11.41138,7.39188 17.81152,21.61726 20.57617,32.69727 2.65837,10.65409 -3.89154,28.27896 -11.72461,36.84179 -3.91653,4.28142 -11.19295,6.75911 -17.47266,7.36719 -6.27971,0.60808 -15.26571,-2.4129 -27.51758,-9.35156 -7.58205,-4.42016 -18.81431,-0.29106 -23.13929,7.34567 -4.32497,7.63673 -1.57438,18.83535 6.11586,23.06448 16.34648,9.25759 31.89565,10.1661 46.07617,8.79297 14.18052,-1.37312 27.79159,-8.28746 36.17969,-17.45703 16.77619,-18.33914 24.5046,-42.34944 19.04492,-64.23047 -5.35341,-21.45511 -20.42051,-39.26063 -37.01172,-50.00781 -12.4434,-8.06038 -24.32837,-12.1831 -37.87109,-12.76367 z"
       id="path92" />
  </g>
</svg>
